<?xml version="1.0" encoding="utf-8" ?>
<!DOCTYPE svg PUBLIC "-//W3C//DTD SVG 1.1//EN" "http://www.w3.org/Graphics/SVG/1.1/DTD/svg11.dtd">
<svg height="828" version="1.1" width="1212" xmlns="http://www.w3.org/2000/svg">
<text font-family="Dialog" font-size="12" x="30" y="275">
User</text>
<ellipse cx="44" cy="223" fill="#000000" rx="8.0" ry="7.5" stroke="#000000" stroke-width="1"/>
<ellipse cx="44" cy="223" fill="#ffffff" rx="7.0" ry="6.5" stroke="#ffffff" stroke-width="1"/>
<line fill="#000000" stroke="#000000" stroke-width="1" x1="44" x2="44" y1="231" y2="246"/>
<line fill="#000000" stroke="#000000" stroke-width="1" x1="34" x2="54" y1="236" y2="236"/>
<line fill="#000000" stroke="#000000" stroke-width="1" x1="44" x2="39" y1="246" y2="261"/>
<line fill="#000000" stroke="#000000" stroke-width="1" x1="44" x2="49" y1="246" y2="261"/>
<polyline fill="none" points="318,457 49,285" stroke="#000000" stroke-width="1"/>
<rect fill="#ffffff" height="728" stroke="#ffffff" stroke-width="1" width="392" x="174" y="14"/>
<rect fill="none" height="728" stroke="#000000" stroke-width="1" width="392" x="174" y="14"/>
<rect fill="none" height="727" stroke="#000000" stroke-width="1" width="391" x="174" y="14"/>
<text font-family="Dialog" font-size="12" font-weight="bold" x="329" y="28">
App Controller</text>
<ellipse cx="364" cy="78" fill="#000000" rx="70.0" ry="24.0" stroke="#000000" stroke-width="1"/>
<ellipse cx="364" cy="78" fill="#ffffff" rx="69.0" ry="23.0" stroke="#ffffff" stroke-width="1"/>
<text font-family="Dialog" font-size="12" x="309" y="79">
Print single element</text>
<ellipse cx="359" cy="135" fill="#000000" rx="73.0" ry="25.0" stroke="#000000" stroke-width="1"/>
<ellipse cx="359" cy="135" fill="#ffffff" rx="72.0" ry="24.0" stroke="#ffffff" stroke-width="1"/>
<text font-family="Dialog" font-size="12" x="301" y="136">
Print all the elements</text>
<ellipse cx="357" cy="187" fill="#000000" rx="55.0" ry="21.0" stroke="#000000" stroke-width="1"/>
<ellipse cx="357" cy="187" fill="#ffffff" rx="54.0" ry="20.0" stroke="#ffffff" stroke-width="1"/>
<text font-family="Dialog" font-size="12" x="318" y="188">
Print statistics</text>
<ellipse cx="357" cy="235" fill="#000000" rx="55.0" ry="21.0" stroke="#000000" stroke-width="1"/>
<ellipse cx="357" cy="235" fill="#ffffff" rx="54.0" ry="20.0" stroke="#ffffff" stroke-width="1"/>
<text font-family="Dialog" font-size="12" x="318" y="236">
Print Metadata</text>
<ellipse cx="367" cy="670" fill="#000000" rx="145.0" ry="40.0" stroke="#000000" stroke-width="1"/>
<ellipse cx="367" cy="670" fill="#ffffff" rx="144.0" ry="39.0" stroke="#ffffff" stroke-width="1"/>
<text font-family="Dialog" font-size="12" x="234" y="671">
Filter dataset with one parameter (not numerical)</text>
<ellipse cx="365" cy="406" fill="#000000" rx="143.0" ry="40.0" stroke="#000000" stroke-width="1"/>
<ellipse cx="365" cy="406" fill="#ffffff" rx="142.0" ry="39.0" stroke="#ffffff" stroke-width="1"/>
<text font-family="Dialog" font-size="12" x="234" y="407">
Filter dataset considering a numerical threshold</text>
<ellipse cx="370" cy="490" fill="#000000" rx="124.0" ry="36.0" stroke="#000000" stroke-width="1"/>
<ellipse cx="370" cy="490" fill="#ffffff" rx="123.0" ry="35.0" stroke="#ffffff" stroke-width="1"/>
<text font-family="Dialog" font-size="12" x="258" y="491">
Filter dataset considering two thresholds</text>
<ellipse cx="377" cy="576" fill="#000000" rx="155.0" ry="42.0" stroke="#000000" stroke-width="1"/>
<ellipse cx="377" cy="576" fill="#ffffff" rx="154.0" ry="41.0" stroke="#ffffff" stroke-width="1"/>
<text font-family="Dialog" font-size="12" x="235" y="577">
Filter dataset with one parameter and one threshold</text>
<ellipse cx="371" cy="309" fill="#000000" rx="181.0" ry="47.0" stroke="#000000" stroke-width="1"/>
<ellipse cx="371" cy="309" fill="#ffffff" rx="180.0" ry="46.0" stroke="#ffffff" stroke-width="1"/>
<text font-family="Dialog" font-size="12" x="201" y="310">
Count unique elements and repetitions relative to a parameter</text>
<polyline fill="none" points="53,223 304,193" stroke="#000000" stroke-width="1"/>
<polyline fill="none" points="303,151 53,223" stroke="#000000" stroke-width="1"/>
<polyline fill="none" points="321,97 52,220" stroke="#000000" stroke-width="1"/>
<polyline fill="none" points="302,235 54,236" stroke="#000000" stroke-width="1"/>
<polyline fill="none" points="334,630 49,285" stroke="#000000" stroke-width="1"/>
<polyline fill="none" points="280,373 49,285" stroke="#000000" stroke-width="1"/>
<polyline fill="none" points="318,457 49,285" stroke="#000000" stroke-width="1"/>
<polyline fill="none" points="49,285 331,535" stroke="#000000" stroke-width="1"/>
<polyline fill="none" points="54,236 235,277" stroke="#000000" stroke-width="1"/>
<rect fill="#ffffff" height="800" stroke="#ffffff" stroke-width="1" width="384" x="598" y="14"/>
<rect fill="none" height="800" stroke="#000000" stroke-width="1" width="384" x="598" y="14"/>
<rect fill="none" height="799" stroke="#000000" stroke-width="1" width="383" x="598" y="14"/>
<text font-family="Dialog" font-size="12" font-weight="bold" x="756" y="28">
App Service</text>
<ellipse cx="780" cy="70" fill="#000000" rx="70.0" ry="24.0" stroke="#000000" stroke-width="1"/>
<ellipse cx="780" cy="70" fill="#ffffff" rx="69.0" ry="23.0" stroke="#ffffff" stroke-width="1"/>
<text font-family="Dialog" font-size="12" x="725" y="71">
Print single element</text>
<polyline fill="none" points="433,73 710,73" stroke="#000000" stroke-width="1"/>
<ellipse cx="783" cy="127" fill="#000000" rx="73.0" ry="25.0" stroke="#000000" stroke-width="1"/>
<ellipse cx="783" cy="127" fill="#ffffff" rx="72.0" ry="24.0" stroke="#ffffff" stroke-width="1"/>
<text font-family="Dialog" font-size="12" x="725" y="128">
Print all the elements</text>
<polyline fill="none" points="431,130 710,130" stroke="#000000" stroke-width="1"/>
<ellipse cx="781" cy="179" fill="#000000" rx="55.0" ry="21.0" stroke="#000000" stroke-width="1"/>
<ellipse cx="781" cy="179" fill="#ffffff" rx="54.0" ry="20.0" stroke="#ffffff" stroke-width="1"/>
<text font-family="Dialog" font-size="12" x="742" y="180">
Print statistics</text>
<polyline fill="none" points="411,182 726,182" stroke="#000000" stroke-width="1"/>
<rect fill="#ffffff" height="240" stroke="#ffffff" stroke-width="1" width="184" x="1014" y="14"/>
<rect fill="none" height="240" stroke="#000000" stroke-width="1" width="184" x="1014" y="14"/>
<rect fill="none" height="239" stroke="#000000" stroke-width="1" width="183" x="1014" y="14"/>
<text font-family="Dialog" font-size="12" font-weight="bold" x="1077" y="28">
Calculator</text>
<ellipse cx="1110" cy="59" fill="#000000" rx="56.0" ry="21.0" stroke="#000000" stroke-width="1"/>
<ellipse cx="1110" cy="59" fill="#ffffff" rx="55.0" ry="20.0" stroke="#ffffff" stroke-width="1"/>
<text font-family="Dialog" font-size="12" x="1070" y="60">
Compute Sum</text>
<ellipse cx="1108" cy="110" fill="#000000" rx="70.0" ry="24.0" stroke="#000000" stroke-width="1"/>
<ellipse cx="1108" cy="110" fill="#ffffff" rx="69.0" ry="23.0" stroke="#ffffff" stroke-width="1"/>
<text font-family="Dialog" font-size="12" x="1053" y="111">
Find Minimum value</text>
<ellipse cx="1109" cy="167" fill="#000000" rx="71.0" ry="25.0" stroke="#000000" stroke-width="1"/>
<ellipse cx="1109" cy="167" fill="#ffffff" rx="70.0" ry="24.0" stroke="#ffffff" stroke-width="1"/>
<text font-family="Dialog" font-size="12" x="1052" y="168">
Find Maximum Value</text>
<polyline fill="none" points="1069,73 820,164" stroke="#000000" stroke-width="1"/>
<polyline fill="none" points="1038,172 835,172" stroke="#000000" stroke-width="1"/>
<polyline fill="none" points="829,168 1048,122" stroke="#000000" stroke-width="1"/>
<ellipse cx="781" cy="227" fill="#000000" rx="55.0" ry="21.0" stroke="#000000" stroke-width="1"/>
<ellipse cx="781" cy="227" fill="#ffffff" rx="54.0" ry="20.0" stroke="#ffffff" stroke-width="1"/>
<text font-family="Dialog" font-size="12" x="742" y="228">
Print Metadata</text>
<polyline fill="none" points="411,230 726,230" stroke="#000000" stroke-width="1"/>
<ellipse cx="791" cy="670" fill="#000000" rx="145.0" ry="40.0" stroke="#000000" stroke-width="1"/>
<ellipse cx="791" cy="670" fill="#ffffff" rx="144.0" ry="39.0" stroke="#ffffff" stroke-width="1"/>
<text font-family="Dialog" font-size="12" x="658" y="671">
Filter dataset with one parameter (not numerical)</text>
<polyline fill="none" points="646,670 512,670" stroke="#000000" stroke-width="1"/>
<ellipse cx="789" cy="406" fill="#000000" rx="143.0" ry="40.0" stroke="#000000" stroke-width="1"/>
<ellipse cx="789" cy="406" fill="#ffffff" rx="142.0" ry="39.0" stroke="#ffffff" stroke-width="1"/>
<text font-family="Dialog" font-size="12" x="658" y="407">
Filter dataset considering a numerical threshold</text>
<ellipse cx="786" cy="490" fill="#000000" rx="124.0" ry="36.0" stroke="#000000" stroke-width="1"/>
<ellipse cx="786" cy="490" fill="#ffffff" rx="123.0" ry="35.0" stroke="#ffffff" stroke-width="1"/>
<text font-family="Dialog" font-size="12" x="674" y="491">
Filter dataset considering two thresholds</text>
<ellipse cx="791" cy="578" fill="#000000" rx="153.0" ry="44.0" stroke="#000000" stroke-width="1"/>
<ellipse cx="791" cy="578" fill="#ffffff" rx="152.0" ry="43.0" stroke="#ffffff" stroke-width="1"/>
<text font-family="Dialog" font-size="12" x="649" y="579">
Filter dataset with one parameter and one threshold</text>
<ellipse cx="787" cy="309" fill="#000000" rx="181.0" ry="47.0" stroke="#000000" stroke-width="1"/>
<ellipse cx="787" cy="309" fill="#ffffff" rx="180.0" ry="46.0" stroke="#ffffff" stroke-width="1"/>
<text font-family="Dialog" font-size="12" x="617" y="310">
Count unique elements and repetitions relative to a parameter</text>
<polyline fill="none" points="508,406 646,406" stroke="#000000" stroke-width="1"/>
<polyline fill="none" points="494,490 662,490" stroke="#000000" stroke-width="1"/>
<polyline fill="none" points="532,576 638,576" stroke="#000000" stroke-width="1"/>
<polyline fill="none" points="551,306 606,306" stroke="#000000" stroke-width="1"/>
<ellipse cx="783" cy="763" fill="#000000" rx="129.0" ry="37.0" stroke="#000000" stroke-width="1"/>
<ellipse cx="783" cy="763" fill="#ffffff" rx="128.0" ry="36.0" stroke="#ffffff" stroke-width="1"/>
<text font-family="Dialog" font-size="12" x="666" y="764">
Download the .csv file and execute parsing</text>
<ellipse cx="1107" cy="220" fill="#000000" rx="61.0" ry="22.0" stroke="#000000" stroke-width="1"/>
<ellipse cx="1107" cy="220" fill="#ffffff" rx="60.0" ry="21.0" stroke="#ffffff" stroke-width="1"/>
<text font-family="Dialog" font-size="12" x="1062" y="221">
Element counter</text>
<polyline fill="none" points="909,274 1058,233" stroke="#000000" stroke-width="1"/>
<rect fill="#ffffff" height="240" stroke="#ffffff" stroke-width="1" width="176" x="1014" y="286"/>
<rect fill="none" height="240" stroke="#000000" stroke-width="1" width="176" x="1014" y="286"/>
<ellipse cx="1103" cy="335" fill="#000000" rx="73.0" ry="25.0" stroke="#000000" stroke-width="1"/>
<ellipse cx="1103" cy="335" fill="#ffffff" rx="72.0" ry="24.0" stroke="#ffffff" stroke-width="1"/>
<text font-family="Dialog" font-size="12" x="1044" y="336">
Select from collection</text>
<ellipse cx="1105" cy="388" fill="#000000" rx="59.0" ry="22.0" stroke="#000000" stroke-width="1"/>
<ellipse cx="1105" cy="388" fill="#ffffff" rx="58.0" ry="21.0" stroke="#ffffff" stroke-width="1"/>
<text font-family="Dialog" font-size="12" x="1061" y="389">
Check condition</text>
<ellipse cx="1101" cy="445" fill="#000000" rx="63.0" ry="23.0" stroke="#000000" stroke-width="1"/>
<ellipse cx="1101" cy="445" fill="#ffffff" rx="62.0" ry="22.0" stroke="#ffffff" stroke-width="1"/>
<text font-family="Dialog" font-size="12" x="1056" y="446">
Merge array lists</text>
<polyline fill="none" points="1103,366 1103,360" stroke="#000000" stroke-width="1"/>
<rect fill="none" height="239" stroke="#000000" stroke-width="1" width="175" x="1014" y="286"/>
<text font-family="Dialog" font-size="12" font-weight="bold" x="1074" y="300">
Filter Utils</text>
<polyline fill="none" points="848,458 1060,355" stroke="#000000" stroke-width="1"/>
<polyline fill="none" points="897,473 1042,453" stroke="#000000" stroke-width="1"/>
<polyline fill="none" points="899,380 1041,348" stroke="#000000" stroke-width="1"/>
<polyline fill="none" points="843,536 1073,357" stroke="#000000" stroke-width="1"/>
<ellipse cx="956" cy="446" fill="#000000" rx="0.5" ry="0.5" stroke="#000000" stroke-width="1"/>
<ellipse cx="957" cy="447" fill="#ffffff" rx="-0.5" ry="-0.5" stroke="#ffffff" stroke-width="1"/>
<polyline fill="none" points="826,631 1080,358" stroke="#000000" stroke-width="1"/>
<rect fill="#ffffff" height="176" stroke="#ffffff" stroke-width="1" width="152" x="1014" y="566"/>
<rect fill="none" height="176" stroke="#000000" stroke-width="1" width="152" x="1014" y="566"/>
<ellipse cx="1093" cy="611" fill="#000000" rx="55.0" ry="21.0" stroke="#000000" stroke-width="1"/>
<ellipse cx="1093" cy="611" fill="#ffffff" rx="54.0" ry="20.0" stroke="#ffffff" stroke-width="1"/>
<text font-family="Dialog" font-size="12" x="1059" y="612">
jsonDecode</text>
<ellipse cx="1093" cy="715" fill="#000000" rx="55.0" ry="21.0" stroke="#000000" stroke-width="1"/>
<ellipse cx="1093" cy="715" fill="#ffffff" rx="54.0" ry="20.0" stroke="#ffffff" stroke-width="1"/>
<text font-family="Dialog" font-size="12" x="1067" y="716">
csvParse</text>
<ellipse cx="1093" cy="667" fill="#000000" rx="55.0" ry="21.0" stroke="#000000" stroke-width="1"/>
<ellipse cx="1093" cy="667" fill="#ffffff" rx="54.0" ry="20.0" stroke="#ffffff" stroke-width="1"/>
<text font-family="Dialog" font-size="12" x="1065" y="668">
Download</text>
<polyline fill="none" points="1093,632 1093,646" stroke="#000000" stroke-width="1"/>
<polyline fill="none" points="847,730 1058,627" stroke="#000000" stroke-width="1"/>
<polyline fill="none" points="895,745 1041,722" stroke="#000000" stroke-width="1"/>
<rect fill="none" height="175" stroke="#000000" stroke-width="1" width="151" x="1014" y="566"/>
<text font-family="Dialog" font-size="12" font-weight="bold" x="1077" y="580">
Utils</text>
<ellipse cx="1101" cy="499" fill="#000000" rx="55.0" ry="21.0" stroke="#000000" stroke-width="1"/>
<ellipse cx="1101" cy="499" fill="#ffffff" rx="54.0" ry="20.0" stroke="#ffffff" stroke-width="1"/>
<text font-family="Dialog" font-size="12" x="1062" y="500">
Right operator</text>
<polyline fill="none" points="904,548 1054,510" stroke="#000000" stroke-width="1"/>
<polyline fill="none" points="855,634 1069,516" stroke="#000000" stroke-width="1"/>
<polyline fill="none" points="909,495 1046,495" stroke="#000000" stroke-width="1"/>
<polyline fill="none" points="886,435 1057,486" stroke="#000000" stroke-width="1"/>
</svg>
